{"asset":{"version":"2.0","generator":"Blockbench 4.10.0 glTF exporter"},"scenes":[{"nodes":[1],"name":"blockbench_export"}],"scene":0,"nodes":[{"name":"cuboid","mesh":0},{"children":[0]}],"bufferViews":[{"buffer":0,"byteOffset":0,"byteLength":3384,"target":34962,"byteStride":12},{"buffer":0,"byteOffset":3384,"byteLength":3384,"target":34962,"byteStride":12},{"buffer":0,"byteOffset":6768,"byteLength":2256,"target":34962,"byteStride":8},{"buffer":0,"byteOffset":9024,"byteLength":36,"target":34963},{"buffer":0,"byteOffset":9060,"byteLength":12,"target":34963},{"buffer":0,"byteOffset":9072,"byteLength":24,"target":34963},{"buffer":0,"byteOffset":9096,"byteLength":12,"target":34963},{"buffer":0,"byteOffset":9108,"byteLength":20,"target":34963},{"buffer":0,"byteOffset":9128,"byteLength":24,"target":34963},{"buffer":0,"byteOffset":9152,"byteLength":8,"target":34963},{"buffer":0,"byteOffset":9160,"byteLength":12,"target":34963},{"buffer":0,"byteOffset":9172,"byteLength":12,"target":34963},{"buffer":0,"byteOffset":9184,"byteLength":24,"target":34963},{"buffer":0,"byteOffset":9208,"byteLength":24,"target":34963},{"buffer":0,"byteOffset":9232,"byteLength":12,"target":34963},{"buffer":0,"byteOffset":9244,"byteLength":24,"target":34963},{"buffer":0,"byteOffset":9268,"byteLength":24,"target":34963},{"buffer":0,"byteOffset":9292,"byteLength":12,"target":34963},{"buffer":0,"byteOffset":9304,"byteLength":12,"target":34963},{"buffer":0,"byteOffset":9316,"byteLength":8,"target":34963},{"buffer":0,"byteOffset":9324,"byteLength":68,"target":34963},{"buffer":0,"byteOffset":9392,"byteLength":12,"target":34963},{"buffer":0,"byteOffset":9404,"byteLength":12,"target":34963},{"buffer":0,"byteOffset":9416,"byteLength":12,"target":34963},{"buffer":0,"byteOffset":9428,"byteLength":72,"target":34963},{"buffer":0,"byteOffset":9500,"byteLength":12,"target":34963},{"buffer":0,"byteOffset":9512,"byteLength":12,"target":34963},{"buffer":0,"byteOffset":9524,"byteLength":24,"target":34963},{"buffer":0,"byteOffset":9548,"byteLength":224,"target":34963},{"buffer":0,"byteOffset":9772,"byteLength":12,"target":34963},{"buffer":0,"byteOffset":9784,"byteLength":36,"target":34963},{"buffer":0,"byteOffset":9820,"byteLength":8,"target":34963}],"buffers":[{"byteLength":9828,"uri":"data:application/octet-stream;base64,"}],"accessors":[{"bufferView":0,"componentType":5126,"count":282,"max":[0.5838474035263062,0.7980496287345886,1.1778738498687744],"min":[-0.5855250954627991,0.21332262456417084,-0.7433017492294312],"type":"VEC3"},{"bufferView":1,"componentType":5126,"count":282,"max":[0.9952215552330017,0.9969393610954285,0.9916786551475525],"min":[-0.997930645942688,-1,-0.9996174573898315],"type":"VEC3"},{"bufferView":2,"componentType":5126,"count":282,"max":[0.7328160405158997,0.76171875],"min":[0,0],"type":"VEC2"},{"bufferView":3,"componentType":5123,"count":18,"max":[11],"min":[0],"type":"SCALAR"},{"bufferView":4,"componentType":5123,"count":6,"max":[15],"min":[12],"type":"SCALAR"},{"bufferView":5,"componentType":5123,"count":12,"max":[23],"min":[16],"type":"SCALAR"},{"bufferView":6,"componentType":5123,"count":6,"max":[27],"min":[24],"type":"SCALAR"},{"bufferView":7,"componentType":5123,"count":9,"max":[34],"min":[28],"type":"SCALAR"},{"bufferView":8,"componentType":5123,"count":12,"max":[42],"min":[35],"type":"SCALAR"},{"bufferView":9,"componentType":5123,"count":3,"max":[45],"min":[43],"type":"SCALAR"},{"bufferView":10,"componentType":5123,"count":6,"max":[49],"min":[46],"type":"SCALAR"},{"bufferView":11,"componentType":5123,"count":6,"max":[53],"min":[50],"type":"SCALAR"},{"bufferView":12,"componentType":5123,"count":12,"max":[61],"min":[54],"type":"SCALAR"},{"bufferView":13,"componentType":5123,"count":12,"max":[69],"min":[62],"type":"SCALAR"},{"bufferView":14,"componentType":5123,"count":6,"max":[73],"min":[70],"type":"SCALAR"},{"bufferView":15,"componentType":5123,"count":12,"max":[81],"min":[74],"type":"SCALAR"},{"bufferView":16,"componentType":5123,"count":12,"max":[89],"min":[82],"type":"SCALAR"},{"bufferView":17,"componentType":5123,"count":6,"max":[93],"min":[90],"type":"SCALAR"},{"bufferView":18,"componentType":5123,"count":6,"max":[97],"min":[94],"type":"SCALAR"},{"bufferView":19,"componentType":5123,"count":3,"max":[100],"min":[98],"type":"SCALAR"},{"bufferView":20,"componentType":5123,"count":33,"max":[123],"min":[101],"type":"SCALAR"},{"bufferView":21,"componentType":5123,"count":6,"max":[127],"min":[124],"type":"SCALAR"},{"bufferView":22,"componentType":5123,"count":6,"max":[131],"min":[128],"type":"SCALAR"},{"bufferView":23,"componentType":5123,"count":6,"max":[135],"min":[132],"type":"SCALAR"},{"bufferView":24,"componentType":5123,"count":36,"max":[159],"min":[136],"type":"SCALAR"},{"bufferView":25,"componentType":5123,"count":6,"max":[163],"min":[160],"type":"SCALAR"},{"bufferView":26,"componentType":5123,"count":6,"max":[167],"min":[164],"type":"SCALAR"},{"bufferView":27,"componentType":5123,"count":12,"max":[175],"min":[168],"type":"SCALAR"},{"bufferView":28,"componentType":5123,"count":111,"max":[254],"min":[176],"type":"SCALAR"},{"bufferView":29,"componentType":5123,"count":6,"max":[260],"min":[255],"type":"SCALAR"},{"bufferView":30,"componentType":5123,"count":18,"max":[278],"min":[261],"type":"SCALAR"},{"bufferView":31,"componentType":5123,"count":3,"max":[281],"min":[279],"type":"SCALAR"}],"materials":[{"pbrMetallicRoughness":{"metallicFactor":0,"roughnessFactor":1,"baseColorTexture":{"index":0}},"alphaMode":"MASK","alphaCutoff":0.05,"doubleSided":true},{"pbrMetallicRoughness":{"metallicFactor":0,"roughnessFactor":1,"baseColorTexture":{"index":1}},"alphaMode":"MASK","alphaCutoff":0.05,"doubleSided":true}],"textures":[{"sampler":0,"source":0,"name":"texture"},{"sampler":1,"source":1,"name":"metal-texture01.png"}],"samplers":[{"magFilter":9728,"minFilter":9728,"wrapS":33071,"wrapT":33071},{"magFilter":9728,"minFilter":9728,"wrapS":33071,"wrapT":33071}],"images":[{"mimeType":"image/png","uri":"data:image/png;base64,"},{"mimeType":"image/png","uri":"data:image/png;base64,"}],"meshes":[{"primitives":[{"mode":4,"attributes":{"POSITION":0,"NORMAL":1,"TEXCOORD_0":2},"indices":3,"material":0},{"mode":4,"attributes":{"POSITION":0,"NORMAL":1,"TEXCOORD_0":2},"indices":4,"material":1},{"mode":4,"attributes":{"POSITION":0,"NORMAL":1,"TEXCOORD_0":2},"indices":5,"material":0},{"mode":4,"attributes":{"POSITION":0,"NORMAL":1,"TEXCOORD_0":2},"indices":6,"material":1},{"mode":4,"attributes":{"POSITION":0,"NORMAL":1,"TEXCOORD_0":2},"indices":7,"material":0},{"mode":4,"attributes":{"POSITION":0,"NORMAL":1,"TEXCOORD_0":2},"indices":8,"material":1},{"mode":4,"attributes":{"POSITION":0,"NORMAL":1,"TEXCOORD_0":2},"indices":9,"material":0},{"mode":4,"attributes":{"POSITION":0,"NORMAL":1,"TEXCOORD_0":2},"indices":10,"material":1},{"mode":4,"attributes":{"POSITION":0,"NORMAL":1,"TEXCOORD_0":2},"indices":11,"material":0},{"mode":4,"attributes":{"POSITION":0,"NORMAL":1,"TEXCOORD_0":2},"indices":12,"material":1},{"mode":4,"attributes":{"POSITION":0,"NORMAL":1,"TEXCOORD_0":2},"indices":13,"material":0},{"mode":4,"attributes":{"POSITION":0,"NORMAL":1,"TEXCOORD_0":2},"indices":14,"material":1},{"mode":4,"attributes":{"POSITION":0,"NORMAL":1,"TEXCOORD_0":2},"indices":15,"material":0},{"mode":4,"attributes":{"POSITION":0,"NORMAL":1,"TEXCOORD_0":2},"indices":16,"material":1},{"mode":4,"attributes":{"POSITION":0,"NORMAL":1,"TEXCOORD_0":2},"indices":17,"material":0},{"mode":4,"attributes":{"POSITION":0,"NORMAL":1,"TEXCOORD_0":2},"indices":18,"material":1},{"mode":4,"attributes":{"POSITION":0,"NORMAL":1,"TEXCOORD_0":2},"indices":19,"material":0},{"mode":4,"attributes":{"POSITION":0,"NORMAL":1,"TEXCOORD_0":2},"indices":20,"material":1},{"mode":4,"attributes":{"POSITION":0,"NORMAL":1,"TEXCOORD_0":2},"indices":21,"material":0},{"mode":4,"attributes":{"POSITION":0,"NORMAL":1,"TEXCOORD_0":2},"indices":22,"material":1},{"mode":4,"attributes":{"POSITION":0,"NORMAL":1,"TEXCOORD_0":2},"indices":23,"material":0},{"mode":4,"attributes":{"POSITION":0,"NORMAL":1,"TEXCOORD_0":2},"indices":24,"material":1},{"mode":4,"attributes":{"POSITION":0,"NORMAL":1,"TEXCOORD_0":2},"indices":25,"material":0},{"mode":4,"attributes":{"POSITION":0,"NORMAL":1,"TEXCOORD_0":2},"indices":26,"material":1},{"mode":4,"attributes":{"POSITION":0,"NORMAL":1,"TEXCOORD_0":2},"indices":27,"material":0},{"mode":4,"attributes":{"POSITION":0,"NORMAL":1,"TEXCOORD_0":2},"indices":28,"material":1},{"mode":4,"attributes":{"POSITION":0,"NORMAL":1,"TEXCOORD_0":2},"indices":29,"material":0},{"mode":4,"attributes":{"POSITION":0,"NORMAL":1,"TEXCOORD_0":2},"indices":30,"material":1},{"mode":4,"attributes":{"POSITION":0,"NORMAL":1,"TEXCOORD_0":2},"indices":31,"material":0}]}]}