{"asset":{"version":"2.0","generator":"Blockbench 4.10.1 glTF exporter"},"scenes":[{"nodes":[17],"name":"blockbench_export"}],"scene":0,"nodes":[{"name":"Bridge","mesh":0},{"name":"BridgeConnector","mesh":1},{"name":"CommandCore","mesh":2},{"name":"Hull connector","mesh":3},{"rotation":[-0.7071067811865475,0,0,0.7071067811865476],"translation":[0,0,-1.1079999999999999],"name":"Smoother","mesh":4},{"name":"Nacelles","mesh":5},{"translation":[0,0.032,0.3039999999999998],"name":"CommandModule","children":[0,1,2,3,4,5]},{"rotation":[-0.7071067811865475,0,0,0.7071067811865476],"translation":[0,-0.7600000000000001,0.49155555555555575],"name":"Stabilizer","mesh":6},{"translation":[0,0.7600000000000001,-0.47455555555555584],"name":"StabilizerAft","children":[7]},{"rotation":[0.7071067811865475,0,0,0.7071067811865476],"translation":[0,-0.7599999999999998,2.1444444444444435],"name":"Stabilizer2","mesh":7},{"translation":[0,0.7599999999999998,-2.1274444444444436],"name":"StabilizerBow","children":[9]},{"translation":[3.849966940232398e-17,-0.7439999999999999,1.3190000000000004],"name":"Coreball","mesh":8},{"translation":[-3.849966940232398e-17,0.7439999999999999,-1.3020000000000005],"name":"Spinner","children":[11]},{"name":"EngineeringModule","children":[8,10,12]},{"name":"cuboid","mesh":9},{"translation":[0,0.032,0.016999999999999904],"name":"ForewardModule","children":[14]},{"translation":[0,0,1.3360000000000003],"name":"Ship","children":[6,13,15]},{"children":[16]}],"bufferViews":[{"buffer":0,"byteOffset":0,"byteLength":672,"target":34962,"byteStride":12},{"buffer":0,"byteOffset":672,"byteLength":672,"target":34962,"byteStride":12},{"buffer":0,"byteOffset":1344,"byteLength":448,"target":34962,"byteStride":8},{"buffer":0,"byteOffset":1792,"byteLength":168,"target":34963},{"buffer":0,"byteOffset":1960,"byteLength":288,"target":34962,"byteStride":12},{"buffer":0,"byteOffset":2248,"byteLength":288,"target":34962,"byteStride":12},{"buffer":0,"byteOffset":2536,"byteLength":192,"target":34962,"byteStride":8},{"buffer":0,"byteOffset":2728,"byteLength":72,"target":34963},{"buffer":0,"byteOffset":2800,"byteLength":2496,"target":34962,"byteStride":12},{"buffer":0,"byteOffset":5296,"byteLength":2496,"target":34962,"byteStride":12},{"buffer":0,"byteOffset":7792,"byteLength":1664,"target":34962,"byteStride":8},{"buffer":0,"byteOffset":9456,"byteLength":624,"target":34963},{"buffer":0,"byteOffset":10080,"byteLength":408,"target":34962,"byteStride":12},{"buffer":0,"byteOffset":10488,"byteLength":408,"target":34962,"byteStride":12},{"buffer":0,"byteOffset":10896,"byteLength":272,"target":34962,"byteStride":8},{"buffer":0,"byteOffset":11168,"byteLength":96,"target":34963},{"buffer":0,"byteOffset":11264,"byteLength":192,"target":34962,"byteStride":12},{"buffer":0,"byteOffset":11456,"byteLength":192,"target":34962,"byteStride":12},{"buffer":0,"byteOffset":11648,"byteLength":128,"target":34962,"byteStride":8},{"buffer":0,"byteOffset":11776,"byteLength":36,"target":34963},{"buffer":0,"byteOffset":11812,"byteLength":2400,"target":34962,"byteStride":12},{"buffer":0,"byteOffset":14212,"byteLength":2400,"target":34962,"byteStride":12},{"buffer":0,"byteOffset":16612,"byteLength":1600,"target":34962,"byteStride":8},{"buffer":0,"byteOffset":18212,"byteLength":600,"target":34963},{"buffer":0,"byteOffset":18812,"byteLength":816,"target":34962,"byteStride":12},{"buffer":0,"byteOffset":19628,"byteLength":816,"target":34962,"byteStride":12},{"buffer":0,"byteOffset":20444,"byteLength":544,"target":34962,"byteStride":8},{"buffer":0,"byteOffset":20988,"byteLength":192,"target":34963},{"buffer":0,"byteOffset":21180,"byteLength":816,"target":34962,"byteStride":12},{"buffer":0,"byteOffset":21996,"byteLength":816,"target":34962,"byteStride":12},{"buffer":0,"byteOffset":22812,"byteLength":544,"target":34962,"byteStride":8},{"buffer":0,"byteOffset":23356,"byteLength":192,"target":34963},{"buffer":0,"byteOffset":23548,"byteLength":3168,"target":34962,"byteStride":12},{"buffer":0,"byteOffset":26716,"byteLength":3168,"target":34962,"byteStride":12},{"buffer":0,"byteOffset":29884,"byteLength":2112,"target":34962,"byteStride":8},{"buffer":0,"byteOffset":31996,"byteLength":720,"target":34963},{"buffer":0,"byteOffset":32716,"byteLength":4992,"target":34962,"byteStride":12},{"buffer":0,"byteOffset":37708,"byteLength":4992,"target":34962,"byteStride":12},{"buffer":0,"byteOffset":42700,"byteLength":3328,"target":34962,"byteStride":8},{"buffer":0,"byteOffset":46028,"byteLength":1248,"target":34963},{"buffer":0,"byteOffset":47276,"byteLength":16},{"buffer":0,"byteOffset":47292,"byteLength":64},{"buffer":0,"byteOffset":47356,"byteLength":16},{"buffer":0,"byteOffset":47372,"byteLength":64},{"buffer":0,"byteOffset":47436,"byteLength":16},{"buffer":0,"byteOffset":47452,"byteLength":64}],"buffers":[{"byteLength":47516,"uri":"data:application/octet-stream;base64,"}],"accessors":[{"bufferView":0,"componentType":5126,"count":56,"max":[0.14399999380111694,1.3519999980926514,1.034500002861023],"min":[-0.14399999380111694,1.184000015258789,0.20550000667572021],"type":"VEC3"},{"bufferView":1,"componentType":5126,"count":56,"max":[0.9957590699195862,0.9978801012039185,1],"min":[-0.9957590699195862,-0.9996309876441956,-1],"type":"VEC3"},{"bufferView":2,"componentType":5126,"count":56,"max":[0.859375,0.046875],"min":[0.015625,0.015625],"type":"VEC2"},{"bufferView":3,"componentType":5123,"count":84,"max":[55],"min":[0],"type":"SCALAR"},{"bufferView":4,"componentType":5126,"count":24,"max":[0.12800000607967377,1.2000000476837158,1.0679999589920044],"min":[-0.12800000607967377,1,0.17599999904632568],"type":"VEC3"},{"bufferView":5,"componentType":5126,"count":24,"max":[0.9284766912460327,1,0.765704870223999],"min":[-0.9284766912460327,-1,-0.3518945872783661],"type":"VEC3"},{"bufferView":6,"componentType":5126,"count":24,"max":[0.984375,0.109375],"min":[0.015625,0.015625],"type":"VEC2"},{"bufferView":7,"componentType":5123,"count":36,"max":[23],"min":[0],"type":"SCALAR"},{"bufferView":8,"componentType":5126,"count":208,"max":[0.328000009059906,0.9240000247955322,1.3536033630371094],"min":[-0.328000009059906,0.47816428542137146,-0.18000000715255737],"type":"VEC3"},{"bufferView":9,"componentType":5126,"count":208,"max":[0.9998979568481445,1,0.9605164527893066],"min":[-0.9996845126152039,-0.999987781047821,-1],"type":"VEC3"},{"bufferView":10,"componentType":5126,"count":208,"max":[0.984375,0.296875],"min":[0.015625,0.078125],"type":"VEC2"},{"bufferView":11,"componentType":5123,"count":312,"max":[207],"min":[0],"type":"SCALAR"},{"bufferView":12,"componentType":5126,"count":34,"max":[0.1679999977350235,1.0160000324249268,1.100000023841858],"min":[-0.1679999977350235,0.9240000247955322,-0.12250000238418579],"type":"VEC3"},{"bufferView":13,"componentType":5126,"count":34,"max":[0.9170700311660767,1,0.9676172733306885],"min":[-0.9170700311660767,-1,-0.28076162934303284],"type":"VEC3"},{"bufferView":14,"componentType":5126,"count":34,"max":[0.984375,0.359375],"min":[0.015625,0.265625],"type":"VEC2"},{"bufferView":15,"componentType":5123,"count":48,"max":[33],"min":[0],"type":"SCALAR"},{"bufferView":16,"componentType":5126,"count":16,"max":[0.2759999930858612,-0.4440000057220459,0.9200000166893005],"min":[-0.2759999930858612,-0.9359999895095825,0.5920000076293945],"type":"VEC3"},{"bufferView":17,"componentType":5126,"count":16,"max":[0.8648408651351929,0.39812177419662476,0.9341263175010681],"min":[-0.8648408651351929,-1,-0.9618184566497803],"type":"VEC3"},{"bufferView":18,"componentType":5126,"count":16,"max":[0.796875,0.296875],"min":[0.515625,0.265625],"type":"VEC2"},{"bufferView":19,"componentType":5123,"count":18,"max":[15],"min":[0],"type":"SCALAR"},{"bufferView":20,"componentType":5126,"count":200,"max":[1.247310757637024,0.9480000138282776,1.343999981880188],"min":[-1.247310757637024,0.237393319606781,-0.20399999618530273],"type":"VEC3"},{"bufferView":21,"componentType":5126,"count":200,"max":[0.9987898468971252,0.9729623198509216,1],"min":[-0.9985835552215576,-0.9923802018165588,-1],"type":"VEC3"},{"bufferView":22,"componentType":5126,"count":200,"max":[0.984375,0.546875],"min":[0.015625,0.328125],"type":"VEC2"},{"bufferView":23,"componentType":5123,"count":300,"max":[199],"min":[0],"type":"SCALAR"},{"bufferView":24,"componentType":5126,"count":68,"max":[0.8960000276565552,1.1959999799728394,1.0340254306793213],"min":[-0.8960000276565552,-0.19200000166893005,0.48597460985183716],"type":"VEC3"},{"bufferView":25,"componentType":5126,"count":68,"max":[0.9712226986885071,0.7863183617591858,0.9836516380310059],"min":[-0.9712226986885071,-0.9999780654907227,-0.9836516380310059],"type":"VEC3"},{"bufferView":26,"componentType":5126,"count":68,"max":[0.984375,0.109375],"min":[0.015625,0.015625],"type":"VEC2"},{"bufferView":27,"componentType":5123,"count":96,"max":[67],"min":[0],"type":"SCALAR"},{"bufferView":28,"componentType":5126,"count":68,"max":[0.8960000276565552,-1.440000057220459,-0.48597460985183716],"min":[-0.8960000276565552,-2.828000068664551,-1.0340254306793213],"type":"VEC3"},{"bufferView":29,"componentType":5126,"count":68,"max":[0.9712226986885071,0.7863183617591858,0.9836516380310059],"min":[-0.9712226986885071,-0.9999780654907227,-0.9836516380310059],"type":"VEC3"},{"bufferView":30,"componentType":5126,"count":68,"max":[0.984375,0.171875],"min":[0.015625,0.078125],"type":"VEC2"},{"bufferView":31,"componentType":5123,"count":96,"max":[67],"min":[0],"type":"SCALAR"},{"bufferView":32,"componentType":5126,"count":264,"max":[0.625,1.36899995803833,-0.6940000057220459],"min":[-0.625,0.11900000274181366,-1.944000005722046],"type":"VEC3"},{"bufferView":33,"componentType":5126,"count":264,"max":[0.9659258127212524,0.9659258127212524,0.9659258127212524],"min":[-0.9659258127212524,-0.9659258127212524,-0.9659258127212524],"type":"VEC3"},{"bufferView":34,"componentType":5126,"count":264,"max":[0.984375,0.421875],"min":[0.015625,0.140625],"type":"VEC2"},{"bufferView":35,"componentType":5123,"count":360,"max":[263],"min":[0],"type":"SCALAR"},{"bufferView":36,"componentType":5126,"count":416,"max":[0.9798875451087952,1.5415105819702148,-2.4014999866485596],"min":[-0.9798875451087952,0.3720000088214874,-4.934500217437744],"type":"VEC3"},{"bufferView":37,"componentType":5126,"count":416,"max":[0.9984433650970459,1,1],"min":[-0.9984433650970459,-1,-0.9993768334388733],"type":"VEC3"},{"bufferView":38,"componentType":5126,"count":416,"max":[0.984375,0.421875],"min":[0.015625,0.015625],"type":"VEC2"},{"bufferView":39,"componentType":5123,"count":624,"max":[415],"min":[0],"type":"SCALAR"},{"bufferView":40,"componentType":5126,"count":4,"max":[20],"min":[0],"type":"SCALAR"},{"bufferView":41,"componentType":5126,"count":4,"max":[0.15849365293979645,0.15849365293979645,0.5915063619613647,1],"min":[-0.5915063619613647,-0.5915063619613647,-0.15849365293979645,-1],"type":"VEC4"},{"bufferView":42,"componentType":5126,"count":4,"max":[20],"min":[0],"type":"SCALAR"},{"bufferView":43,"componentType":5126,"count":4,"max":[0,0,0.8660253882408142,1],"min":[0,0,0,-1],"type":"VEC4"},{"bufferView":44,"componentType":5126,"count":4,"max":[20],"min":[0],"type":"SCALAR"},{"bufferView":45,"componentType":5126,"count":4,"max":[0,0,0,1],"min":[0,0,-0.8660253882408142,-1],"type":"VEC4"}],"materials":[{"pbrMetallicRoughness":{"metallicFactor":0,"roughnessFactor":1,"baseColorTexture":{"index":0}},"alphaMode":"MASK","alphaCutoff":0.05,"doubleSided":true},{"pbrMetallicRoughness":{"metallicFactor":0,"roughnessFactor":1,"baseColorTexture":{"index":1}},"alphaMode":"MASK","alphaCutoff":0.05,"doubleSided":true},{"pbrMetallicRoughness":{"metallicFactor":0,"roughnessFactor":1,"baseColorTexture":{"index":2}},"alphaMode":"MASK","alphaCutoff":0.05,"doubleSided":true}],"textures":[{"sampler":0,"source":0,"name":"texture"},{"sampler":1,"source":1,"name":"texture"},{"sampler":2,"source":2,"name":"texture"}],"samplers":[{"magFilter":9728,"minFilter":9728,"wrapS":33071,"wrapT":33071},{"magFilter":9728,"minFilter":9728,"wrapS":33071,"wrapT":33071},{"magFilter":9728,"minFilter":9728,"wrapS":33071,"wrapT":33071}],"images":[{"mimeType":"image/png","uri":"data:image/png;base64,"},{"mimeType":"image/png","uri":"data:image/png;base64,"},{"mimeType":"image/png","uri":"data:image/png;base64,"}],"meshes":[{"primitives":[{"mode":4,"attributes":{"POSITION":0,"NORMAL":1,"TEXCOORD_0":2},"indices":3,"material":0}]},{"primitives":[{"mode":4,"attributes":{"POSITION":4,"NORMAL":5,"TEXCOORD_0":6},"indices":7,"material":0}]},{"primitives":[{"mode":4,"attributes":{"POSITION":8,"NORMAL":9,"TEXCOORD_0":10},"indices":11,"material":0}]},{"primitives":[{"mode":4,"attributes":{"POSITION":12,"NORMAL":13,"TEXCOORD_0":14},"indices":15,"material":0}]},{"primitives":[{"mode":4,"attributes":{"POSITION":16,"NORMAL":17,"TEXCOORD_0":18},"indices":19,"material":0}]},{"primitives":[{"mode":4,"attributes":{"POSITION":20,"NORMAL":21,"TEXCOORD_0":22},"indices":23,"material":0}]},{"primitives":[{"mode":4,"attributes":{"POSITION":24,"NORMAL":25,"TEXCOORD_0":26},"indices":27,"material":1}]},{"primitives":[{"mode":4,"attributes":{"POSITION":28,"NORMAL":29,"TEXCOORD_0":30},"indices":31,"material":1}]},{"primitives":[{"mode":4,"attributes":{"POSITION":32,"NORMAL":33,"TEXCOORD_0":34},"indices":35,"material":1}]},{"primitives":[{"mode":4,"attributes":{"POSITION":36,"NORMAL":37,"TEXCOORD_0":38},"indices":39,"material":2}]}],"animations":[{"name":"Spinn","samplers":[{"input":40,"output":41,"interpolation":"LINEAR"},{"input":42,"output":43,"interpolation":"LINEAR"},{"input":44,"output":45,"interpolation":"LINEAR"}],"channels":[{"sampler":0,"target":{"node":12,"path":"rotation"}},{"sampler":1,"target":{"node":8,"path":"rotation"}},{"sampler":2,"target":{"node":10,"path":"rotation"}}]}]}