{"asset":{"version":"2.0","generator":"Blockbench 4.10.0 glTF exporter"},"scenes":[{"nodes":[3],"name":"blockbench_export"}],"scene":0,"nodes":[{"name":"plane","mesh":0},{"translation":[-0.02404383763332629,-0.673773924014398,0.04124996971330989],"name":"rock","mesh":1},{"rotation":[0,0.23768589232617307,0,0.9713420698132614],"translation":[0.02404383763332629,0.673773924014398,-0.04124996971330989],"name":"asteroid","children":[1]},{"children":[0,2]}],"bufferViews":[{"buffer":0,"byteOffset":0,"byteLength":48,"target":34962,"byteStride":12},{"buffer":0,"byteOffset":48,"byteLength":48,"target":34962,"byteStride":12},{"buffer":0,"byteOffset":96,"byteLength":32,"target":34962,"byteStride":8},{"buffer":0,"byteOffset":128,"byteLength":12,"target":34963},{"buffer":0,"byteOffset":140,"byteLength":5040,"target":34962,"byteStride":12},{"buffer":0,"byteOffset":5180,"byteLength":5040,"target":34962,"byteStride":12},{"buffer":0,"byteOffset":10220,"byteLength":3360,"target":34962,"byteStride":8},{"buffer":0,"byteOffset":13580,"byteLength":1248,"target":34963},{"buffer":0,"byteOffset":14828,"byteLength":16},{"buffer":0,"byteOffset":14844,"byteLength":64}],"buffers":[{"byteLength":14908,"uri":"data:application/octet-stream;base64,"}],"accessors":[{"bufferView":0,"componentType":5126,"count":4,"max":[0.5,0,0.5],"min":[-0.5,0,-0.5],"type":"VEC3"},{"bufferView":1,"componentType":5126,"count":4,"max":[0,1,0],"min":[0,1,0],"type":"VEC3"},{"bufferView":2,"componentType":5126,"count":4,"max":[0.59375,0.59375],"min":[0,0],"type":"VEC2"},{"bufferView":3,"componentType":5123,"count":6,"max":[3],"min":[0],"type":"SCALAR"},{"bufferView":4,"componentType":5126,"count":420,"max":[0.506485641002655,1.065924882888794,0.45692574977874756],"min":[-0.3865000009536743,0.3783882260322571,-0.4833740293979645],"type":"VEC3"},{"bufferView":5,"componentType":5126,"count":420,"max":[0.9714599847793579,0.9913977980613708,0.9995388388633728],"min":[-0.9975983500480652,-1,-0.9581459164619446],"type":"VEC3"},{"bufferView":6,"componentType":5126,"count":420,"max":[0.7917662262916565,0.7961668968200684],"min":[0,0],"type":"VEC2"},{"bufferView":7,"componentType":5123,"count":624,"max":[419],"min":[0],"type":"SCALAR"},{"bufferView":8,"componentType":5126,"count":4,"max":[60],"min":[0],"type":"SCALAR"},{"bufferView":9,"componentType":5126,"count":4,"max":[0,0.237685889005661,0.8412069082260132,0.9713420867919922],"min":[-0.2058420181274414,-0.237685889005661,0,-0.9713420867919922],"type":"VEC4"}],"materials":[{"pbrMetallicRoughness":{"metallicFactor":0,"roughnessFactor":1,"baseColorTexture":{"index":0}},"alphaMode":"MASK","alphaCutoff":0.05,"doubleSided":true},{"pbrMetallicRoughness":{"metallicFactor":0,"roughnessFactor":1,"baseColorTexture":{"index":1}},"alphaMode":"MASK","alphaCutoff":0.05,"doubleSided":true}],"textures":[{"sampler":0,"source":0,"name":"aster.png"},{"sampler":1,"source":1,"name":"aster tex.png"}],"samplers":[{"magFilter":9728,"minFilter":9728,"wrapS":33071,"wrapT":33071},{"magFilter":9728,"minFilter":9728,"wrapS":33071,"wrapT":33071}],"images":[{"mimeType":"image/png","uri":"data:image/png;base64,"},{"mimeType":"image/png","uri":"data:image/png;base64,"}],"meshes":[{"primitives":[{"mode":4,"attributes":{"POSITION":0,"NORMAL":1,"TEXCOORD_0":2},"indices":3,"material":0}]},{"primitives":[{"mode":4,"attributes":{"POSITION":4,"NORMAL":5,"TEXCOORD_0":6},"indices":7,"material":1}]}],"animations":[{"name":"idle","samplers":[{"input":8,"output":9,"interpolation":"LINEAR"}],"channels":[{"sampler":0,"target":{"node":2,"path":"rotation"}}]}]}