{"asset":{"version":"2.0","generator":"Blockbench 4.10.1 glTF exporter"},"scenes":[{"nodes":[11],"name":"blockbench_export"}],"scene":0,"nodes":[{"rotation":[0.3826834323650898,0,0,0.9238795325112867],"translation":[5.6378512969246215e-18,0.32951176003293114,0.3804234482783626],"name":"tube","mesh":0},{"translation":[-1.7925475918427005e-17,0,0],"name":"SouthGun","children":[0]},{"name":"tube","mesh":1},{"rotation":[0,0,0.3826834323650898,0.9238795325112867],"name":"WestGun","children":[2]},{"name":"tube","mesh":2},{"rotation":[-0.3826834323650898,0,0,0.9238795325112867],"name":"NorthGun","children":[4]},{"name":"tube","mesh":3},{"rotation":[0,0,-0.3826834323650898,0.9238795325112867],"name":"EastGun","children":[6]},{"name":"Shell","mesh":4},{"name":"Inner","mesh":5},{"name":"Cardinalgun","children":[1,3,5,7,8,9]},{"children":[10]}],"bufferViews":[{"buffer":0,"byteOffset":0,"byteLength":2304,"target":34962,"byteStride":12},{"buffer":0,"byteOffset":2304,"byteLength":2304,"target":34962,"byteStride":12},{"buffer":0,"byteOffset":4608,"byteLength":1536,"target":34962,"byteStride":8},{"buffer":0,"byteOffset":6144,"byteLength":576,"target":34963},{"buffer":0,"byteOffset":6720,"byteLength":2304,"target":34962,"byteStride":12},{"buffer":0,"byteOffset":9024,"byteLength":2304,"target":34962,"byteStride":12},{"buffer":0,"byteOffset":11328,"byteLength":1536,"target":34962,"byteStride":8},{"buffer":0,"byteOffset":12864,"byteLength":576,"target":34963},{"buffer":0,"byteOffset":13440,"byteLength":2304,"target":34962,"byteStride":12},{"buffer":0,"byteOffset":15744,"byteLength":2304,"target":34962,"byteStride":12},{"buffer":0,"byteOffset":18048,"byteLength":1536,"target":34962,"byteStride":8},{"buffer":0,"byteOffset":19584,"byteLength":576,"target":34963},{"buffer":0,"byteOffset":20160,"byteLength":2304,"target":34962,"byteStride":12},{"buffer":0,"byteOffset":22464,"byteLength":2304,"target":34962,"byteStride":12},{"buffer":0,"byteOffset":24768,"byteLength":1536,"target":34962,"byteStride":8},{"buffer":0,"byteOffset":26304,"byteLength":576,"target":34963},{"buffer":0,"byteOffset":26880,"byteLength":1632,"target":34962,"byteStride":12},{"buffer":0,"byteOffset":28512,"byteLength":1632,"target":34962,"byteStride":12},{"buffer":0,"byteOffset":30144,"byteLength":1088,"target":34962,"byteStride":8},{"buffer":0,"byteOffset":31232,"byteLength":372,"target":34963},{"buffer":0,"byteOffset":31604,"byteLength":1824,"target":34962,"byteStride":12},{"buffer":0,"byteOffset":33428,"byteLength":1824,"target":34962,"byteStride":12},{"buffer":0,"byteOffset":35252,"byteLength":1216,"target":34962,"byteStride":8},{"buffer":0,"byteOffset":36468,"byteLength":420,"target":34963},{"buffer":0,"byteOffset":36888,"byteLength":8},{"buffer":0,"byteOffset":36896,"byteLength":24},{"buffer":0,"byteOffset":36920,"byteLength":8},{"buffer":0,"byteOffset":36928,"byteLength":24},{"buffer":0,"byteOffset":36952,"byteLength":8},{"buffer":0,"byteOffset":36960,"byteLength":24},{"buffer":0,"byteOffset":36984,"byteLength":8},{"buffer":0,"byteOffset":36992,"byteLength":24}],"buffers":[{"byteLength":37016,"uri":"data:application/octet-stream;base64,"}],"accessors":[{"bufferView":0,"componentType":5126,"count":192,"max":[0.09375,0.34375,0.09375],"min":[-0.09375,-0.34375,-0.09375],"type":"VEC3"},{"bufferView":1,"componentType":5126,"count":192,"max":[1,1,1],"min":[-1,-1,-1],"type":"VEC3"},{"bufferView":2,"componentType":5126,"count":192,"max":[0.984375,0.171875],"min":[0.015625,0.015625],"type":"VEC2"},{"bufferView":3,"componentType":5123,"count":288,"max":[191],"min":[0],"type":"SCALAR"},{"bufferView":4,"componentType":5126,"count":192,"max":[0.057750001549720764,0.8457499742507935,0.09375],"min":[-0.12974999845027924,0.15825000405311584,-0.09375],"type":"VEC3"},{"bufferView":5,"componentType":5126,"count":192,"max":[1,1,1],"min":[-1,-1,-1],"type":"VEC3"},{"bufferView":6,"componentType":5126,"count":192,"max":[0.984375,0.546875],"min":[0.015625,0.390625],"type":"VEC2"},{"bufferView":7,"componentType":5123,"count":288,"max":[191],"min":[0],"type":"SCALAR"},{"bufferView":8,"componentType":5126,"count":192,"max":[0.09375,0.8457499742507935,0.057750001549720764],"min":[-0.09375,0.15825000405311584,-0.12974999845027924],"type":"VEC3"},{"bufferView":9,"componentType":5126,"count":192,"max":[1,1,1],"min":[-1,-1,-1],"type":"VEC3"},{"bufferView":10,"componentType":5126,"count":192,"max":[0.984375,0.734375],"min":[0.015625,0.578125],"type":"VEC2"},{"bufferView":11,"componentType":5123,"count":288,"max":[191],"min":[0],"type":"SCALAR"},{"bufferView":12,"componentType":5126,"count":192,"max":[0.12974999845027924,0.8457499742507935,0.09375],"min":[-0.057750001549720764,0.15825000405311584,-0.09375],"type":"VEC3"},{"bufferView":13,"componentType":5126,"count":192,"max":[1,1,1],"min":[-1,-1,-1],"type":"VEC3"},{"bufferView":14,"componentType":5126,"count":192,"max":[0.984375,0.359375],"min":[0.015625,0.203125],"type":"VEC2"},{"bufferView":15,"componentType":5123,"count":288,"max":[191],"min":[0],"type":"SCALAR"},{"bufferView":16,"componentType":5126,"count":136,"max":[0.5,0.4959999918937683,0.5],"min":[-0.5,3.0616171314629196e-17,-0.5],"type":"VEC3"},{"bufferView":17,"componentType":5126,"count":136,"max":[0.9659258127212524,0.9659258127212524,0.9659258127212524],"min":[-0.9659258127212524,-1,-0.9659258127212524],"type":"VEC3"},{"bufferView":18,"componentType":5126,"count":136,"max":[0.9921875,0.0546875],"min":[0.0078125,0.0078125],"type":"VEC2"},{"bufferView":19,"componentType":5123,"count":186,"max":[135],"min":[0],"type":"SCALAR"},{"bufferView":20,"componentType":5126,"count":152,"max":[0.375,0.3779999911785126,0.375],"min":[-0.375,0.006000000052154064,-0.375],"type":"VEC3"},{"bufferView":21,"componentType":5126,"count":152,"max":[0.9659258127212524,0.9659258127212524,0.9659258127212524],"min":[-0.9659258127212524,-1,-0.9659258127212524],"type":"VEC3"},{"bufferView":22,"componentType":5126,"count":152,"max":[0.9921875,0.0859375],"min":[0.0078125,0.0390625],"type":"VEC2"},{"bufferView":23,"componentType":5123,"count":210,"max":[151],"min":[0],"type":"SCALAR"},{"bufferView":24,"componentType":5126,"count":2,"max":[0.5],"min":[0],"type":"SCALAR"},{"bufferView":25,"componentType":5126,"count":2,"max":[0.125,0,0],"min":[0,-0.125,0],"type":"VEC3"},{"bufferView":26,"componentType":5126,"count":2,"max":[0.5],"min":[0],"type":"SCALAR"},{"bufferView":27,"componentType":5126,"count":2,"max":[0,0,0.125],"min":[0,-0.125,0],"type":"VEC3"},{"bufferView":28,"componentType":5126,"count":2,"max":[0.5],"min":[0],"type":"SCALAR"},{"bufferView":29,"componentType":5126,"count":2,"max":[0,0,0],"min":[-0.125,-0.125,0],"type":"VEC3"},{"bufferView":30,"componentType":5126,"count":2,"max":[0.5],"min":[0],"type":"SCALAR"},{"bufferView":31,"componentType":5126,"count":2,"max":[-1.7925475366973265e-17,0,0],"min":[-1.7925475366973265e-17,-0.125,-0.125],"type":"VEC3"}],"materials":[{"pbrMetallicRoughness":{"metallicFactor":0,"roughnessFactor":1,"baseColorTexture":{"index":0}},"alphaMode":"MASK","alphaCutoff":0.05,"doubleSided":true},{"pbrMetallicRoughness":{"metallicFactor":0,"roughnessFactor":1,"baseColorTexture":{"index":1}},"alphaMode":"MASK","alphaCutoff":0.05,"doubleSided":true}],"textures":[{"sampler":0,"source":0,"name":"texture"},{"sampler":1,"source":1,"name":"texture"}],"samplers":[{"magFilter":9728,"minFilter":9728,"wrapS":33071,"wrapT":33071},{"magFilter":9728,"minFilter":9728,"wrapS":33071,"wrapT":33071}],"images":[{"mimeType":"image/png","uri":"data:image/png;base64,"},{"mimeType":"image/png","uri":"data:image/png;base64,"}],"meshes":[{"primitives":[{"mode":4,"attributes":{"POSITION":0,"NORMAL":1,"TEXCOORD_0":2},"indices":3,"material":0}]},{"primitives":[{"mode":4,"attributes":{"POSITION":4,"NORMAL":5,"TEXCOORD_0":6},"indices":7,"material":0}]},{"primitives":[{"mode":4,"attributes":{"POSITION":8,"NORMAL":9,"TEXCOORD_0":10},"indices":11,"material":0}]},{"primitives":[{"mode":4,"attributes":{"POSITION":12,"NORMAL":13,"TEXCOORD_0":14},"indices":15,"material":0}]},{"primitives":[{"mode":4,"attributes":{"POSITION":16,"NORMAL":17,"TEXCOORD_0":18},"indices":19,"material":1}]},{"primitives":[{"mode":4,"attributes":{"POSITION":20,"NORMAL":21,"TEXCOORD_0":22},"indices":23,"material":1}]}],"animations":[{"name":"Fire","samplers":[{"input":24,"output":25,"interpolation":"LINEAR"},{"input":26,"output":27,"interpolation":"LINEAR"},{"input":28,"output":29,"interpolation":"LINEAR"},{"input":30,"output":31,"interpolation":"LINEAR"}],"channels":[{"sampler":0,"target":{"node":3,"path":"translation"}},{"sampler":1,"target":{"node":5,"path":"translation"}},{"sampler":2,"target":{"node":7,"path":"translation"}},{"sampler":3,"target":{"node":1,"path":"translation"}}]}]}