{"asset":{"version":"2.0","generator":"Blockbench 4.10.1 glTF exporter"},"scenes":[{"nodes":[9],"name":"blockbench_export"}],"scene":0,"nodes":[{"rotation":[0.7071067811865475,0,0,0.7071067811865476],"translation":[-0.08750000000000004,0.7076129032258067,-2.7755575615628914e-17],"name":"cylinder","mesh":0},{"rotation":[0.7071067811865475,0,0,0.7071067811865476],"translation":[0.12750000000000003,0.7076129032258067,-2.7755575615628914e-17],"name":"cylinder","mesh":1},{"translation":[-0.02,-0.3440000000000002,0.04400000000000001],"name":"Guns","children":[0,1]},{"name":"Platform","mesh":2},{"name":"pyramid","mesh":3},{"translation":[-0.0875,0,0],"name":"Gunplatform","children":[2,3,4]},{"translation":[-0.0875,0,0],"name":"cone","mesh":4},{"translation":[-0.0875,0,0],"name":"cylinder","mesh":5},{"translation":[0.0875,0,0],"name":"Base","children":[5,6,7]},{"children":[8]}],"bufferViews":[{"buffer":0,"byteOffset":0,"byteLength":2640,"target":34962,"byteStride":12},{"buffer":0,"byteOffset":2640,"byteLength":2640,"target":34962,"byteStride":12},{"buffer":0,"byteOffset":5280,"byteLength":1760,"target":34962,"byteStride":8},{"buffer":0,"byteOffset":7040,"byteLength":600,"target":34963},{"buffer":0,"byteOffset":7640,"byteLength":2640,"target":34962,"byteStride":12},{"buffer":0,"byteOffset":10280,"byteLength":2640,"target":34962,"byteStride":12},{"buffer":0,"byteOffset":12920,"byteLength":1760,"target":34962,"byteStride":8},{"buffer":0,"byteOffset":14680,"byteLength":600,"target":34963},{"buffer":0,"byteOffset":15280,"byteLength":1440,"target":34962,"byteStride":12},{"buffer":0,"byteOffset":16720,"byteLength":1440,"target":34962,"byteStride":12},{"buffer":0,"byteOffset":18160,"byteLength":960,"target":34962,"byteStride":8},{"buffer":0,"byteOffset":19120,"byteLength":288,"target":34963},{"buffer":0,"byteOffset":19408,"byteLength":888,"target":34962,"byteStride":12},{"buffer":0,"byteOffset":20296,"byteLength":888,"target":34962,"byteStride":12},{"buffer":0,"byteOffset":21184,"byteLength":592,"target":34962,"byteStride":8},{"buffer":0,"byteOffset":21776,"byteLength":204,"target":34963},{"buffer":0,"byteOffset":21980,"byteLength":864,"target":34962,"byteStride":12},{"buffer":0,"byteOffset":22844,"byteLength":864,"target":34962,"byteStride":12},{"buffer":0,"byteOffset":23708,"byteLength":576,"target":34962,"byteStride":8},{"buffer":0,"byteOffset":24284,"byteLength":144,"target":34963},{"buffer":0,"byteOffset":24428,"byteLength":1440,"target":34962,"byteStride":12},{"buffer":0,"byteOffset":25868,"byteLength":1440,"target":34962,"byteStride":12},{"buffer":0,"byteOffset":27308,"byteLength":960,"target":34962,"byteStride":8},{"buffer":0,"byteOffset":28268,"byteLength":288,"target":34963},{"buffer":0,"byteOffset":28556,"byteLength":28},{"buffer":0,"byteOffset":28584,"byteLength":112},{"buffer":0,"byteOffset":28696,"byteLength":8},{"buffer":0,"byteOffset":28704,"byteLength":24}],"buffers":[{"byteLength":28728,"uri":"data:application/octet-stream;base64,"}],"accessors":[{"bufferView":0,"componentType":5126,"count":220,"max":[0.10000000149011612,0.29638710618019104,0.1080000028014183],"min":[-0.11599999666213989,-0.20361290872097015,-0.1080000028014183],"type":"VEC3"},{"bufferView":1,"componentType":5126,"count":220,"max":[1,0.3909681439399719,1],"min":[-1,-0.7612432241439819,-1],"type":"VEC3"},{"bufferView":2,"componentType":5126,"count":220,"max":[0.984375,0.671875],"min":[0.015625,0.453125],"type":"VEC2"},{"bufferView":3,"componentType":5123,"count":300,"max":[219],"min":[0],"type":"SCALAR"},{"bufferView":4,"componentType":5126,"count":220,"max":[0.11599999666213989,0.29638710618019104,0.1080000028014183],"min":[-0.10000000149011612,-0.20361290872097015,-0.1080000028014183],"type":"VEC3"},{"bufferView":5,"componentType":5126,"count":220,"max":[1,0.3909681439399719,1],"min":[-1,-0.7612432241439819,-1],"type":"VEC3"},{"bufferView":6,"componentType":5126,"count":220,"max":[0.984375,0.921875],"min":[0.015625,0.703125],"type":"VEC2"},{"bufferView":7,"componentType":5123,"count":300,"max":[219],"min":[0],"type":"SCALAR"},{"bufferView":8,"componentType":5126,"count":120,"max":[0.14800000190734863,0.2240000069141388,0.14800000190734863],"min":[-0.14800000190734863,0.14000000059604645,-0.14800000190734863],"type":"VEC3"},{"bufferView":9,"componentType":5126,"count":120,"max":[1,1,1],"min":[-1,-0.8797065019607544,-1],"type":"VEC3"},{"bufferView":10,"componentType":5126,"count":120,"max":[0.984375,0.359375],"min":[0.015625,0.203125],"type":"VEC2"},{"bufferView":11,"componentType":5123,"count":144,"max":[119],"min":[0],"type":"SCALAR"},{"bufferView":12,"componentType":5126,"count":74,"max":[0.07282638549804688,0.31997138261795044,0.13199999928474426],"min":[-0.07282638549804688,0.2240000069141388,-0.13199999928474426],"type":"VEC3"},{"bufferView":13,"componentType":5126,"count":74,"max":[0.935950517654419,0.9750285148620605,0.25806453824043274],"min":[-0.9686034321784973,-1,-0.7393457889556885],"type":"VEC3"},{"bufferView":14,"componentType":5126,"count":74,"max":[0.984375,0.484375],"min":[0.015625,0.390625],"type":"VEC2"},{"bufferView":15,"componentType":5123,"count":102,"max":[73],"min":[0],"type":"SCALAR"},{"bufferView":16,"componentType":5126,"count":72,"max":[0.12562555074691772,0.12800000607967377,0.12562555074691772],"min":[-0.12562555074691772,-0.06800000369548798,-0.12562555074691772],"type":"VEC3"},{"bufferView":17,"componentType":5126,"count":72,"max":[0.9659258127212524,0.6283385157585144,0.9659258127212524],"min":[-0.9659258127212524,-0.7758939266204834,-0.9659258127212524],"type":"VEC3"},{"bufferView":18,"componentType":5126,"count":72,"max":[0.984375,0.109375],"min":[0.015625,0.015625],"type":"VEC2"},{"bufferView":19,"componentType":5123,"count":72,"max":[71],"min":[0],"type":"SCALAR"},{"bufferView":20,"componentType":5126,"count":120,"max":[0.04800000041723251,0.1679999977350235,0.04800000041723251],"min":[-0.04800000041723251,0.05999999865889549,-0.04800000041723251],"type":"VEC3"},{"bufferView":21,"componentType":5126,"count":120,"max":[1,1,1],"min":[-1,-1,-1],"type":"VEC3"},{"bufferView":22,"componentType":5126,"count":120,"max":[0.984375,0.234375],"min":[0.015625,0.078125],"type":"VEC2"},{"bufferView":23,"componentType":5123,"count":144,"max":[119],"min":[0],"type":"SCALAR"},{"bufferView":24,"componentType":5126,"count":7,"max":[8.5],"min":[0],"type":"SCALAR"},{"bufferView":25,"componentType":5126,"count":7,"max":[0,0.3826834261417389,0,1],"min":[0,-0.3826834261417389,0,0.9238795042037964],"type":"VEC4"},{"bufferView":26,"componentType":5126,"count":2,"max":[0.25],"min":[0],"type":"SCALAR"},{"bufferView":27,"componentType":5126,"count":2,"max":[-0.019999999552965164,-0.3440000116825104,0.04399999976158142],"min":[-0.019999999552965164,-0.3440000116825104,-0.01850000023841858],"type":"VEC3"}],"materials":[{"pbrMetallicRoughness":{"metallicFactor":0,"roughnessFactor":1,"baseColorTexture":{"index":0}},"alphaMode":"MASK","alphaCutoff":0.05,"doubleSided":true}],"textures":[{"sampler":0,"source":0,"name":"texture"}],"samplers":[{"magFilter":9728,"minFilter":9728,"wrapS":33071,"wrapT":33071}],"images":[{"mimeType":"image/png","uri":"data:image/png;base64,"}],"meshes":[{"primitives":[{"mode":4,"attributes":{"POSITION":0,"NORMAL":1,"TEXCOORD_0":2},"indices":3,"material":0}]},{"primitives":[{"mode":4,"attributes":{"POSITION":4,"NORMAL":5,"TEXCOORD_0":6},"indices":7,"material":0}]},{"primitives":[{"mode":4,"attributes":{"POSITION":8,"NORMAL":9,"TEXCOORD_0":10},"indices":11,"material":0}]},{"primitives":[{"mode":4,"attributes":{"POSITION":12,"NORMAL":13,"TEXCOORD_0":14},"indices":15,"material":0}]},{"primitives":[{"mode":4,"attributes":{"POSITION":16,"NORMAL":17,"TEXCOORD_0":18},"indices":19,"material":0}]},{"primitives":[{"mode":4,"attributes":{"POSITION":20,"NORMAL":21,"TEXCOORD_0":22},"indices":23,"material":0}]}],"animations":[{"name":"Idle","samplers":[{"input":24,"output":25,"interpolation":"LINEAR"}],"channels":[{"sampler":0,"target":{"node":5,"path":"rotation"}}]},{"name":"Firing","samplers":[{"input":26,"output":27,"interpolation":"LINEAR"}],"channels":[{"sampler":0,"target":{"node":2,"path":"translation"}}]}]}