{"asset":{"version":"2.0","generator":"Blockbench 4.10.1 glTF exporter"},"scenes":[{"nodes":[2],"name":"blockbench_export"}],"scene":0,"nodes":[{"translation":[-0.0001719534644169362,-0.4866267610436045,-0.6059620753282091],"name":"cuboid","mesh":0},{"translation":[0.012959847097676905,0.4866267610436045,0.6055967546076635],"name":"bone","children":[0]},{"children":[1]}],"bufferViews":[{"buffer":0,"byteOffset":0,"byteLength":18576,"target":34962,"byteStride":12},{"buffer":0,"byteOffset":18576,"byteLength":18576,"target":34962,"byteStride":12},{"buffer":0,"byteOffset":37152,"byteLength":12384,"target":34962,"byteStride":8},{"buffer":0,"byteOffset":49536,"byteLength":4584,"target":34963}],"buffers":[{"byteLength":54120,"uri":"data:application/octet-stream;base64,"}],"accessors":[{"bufferView":0,"componentType":5126,"count":1548,"max":[0.6671628355979919,0.9111981391906738,1.0123955011367798],"min":[-0.6671628355979919,-0.003506575245410204,-0.9225000143051147],"type":"VEC3"},{"bufferView":1,"componentType":5126,"count":1548,"max":[0.9944899082183838,0.9999992847442627,0.8193734884262085],"min":[-0.9969968795776367,-0.9987220764160156,-0.7644966244697571],"type":"VEC3"},{"bufferView":2,"componentType":5126,"count":1548,"max":[0.9921875,0.3984375],"min":[0.0078125,0.0078125],"type":"VEC2"},{"bufferView":3,"componentType":5123,"count":2292,"max":[1547],"min":[0],"type":"SCALAR"}],"materials":[{"pbrMetallicRoughness":{"metallicFactor":0,"roughnessFactor":1,"baseColorTexture":{"index":0}},"alphaMode":"MASK","alphaCutoff":0.05,"doubleSided":true}],"textures":[{"sampler":0,"source":0,"name":"texture"}],"samplers":[{"magFilter":9728,"minFilter":9728,"wrapS":33071,"wrapT":33071}],"images":[{"mimeType":"image/png","uri":"data:image/png;base64,"}],"meshes":[{"primitives":[{"mode":4,"attributes":{"POSITION":0,"NORMAL":1,"TEXCOORD_0":2},"indices":3,"material":0}]}]}