{"asset":{"version":"2.0","generator":"Blockbench 4.10.1 glTF exporter"},"scenes":[{"nodes":[4],"name":"blockbench_export"}],"scene":0,"nodes":[{"translation":[0.5240000000000001,-0.516,0.015999999999999886],"name":"cuboid","mesh":0},{"translation":[-0.5240000000000001,0.516,-0.015999999999999886],"name":"L","children":[0]},{"translation":[-0.5240000000000001,-0.516,0.015999999999999886],"name":"cuboid","mesh":1},{"translation":[0.5240000000000001,0.516,-0.015999999999999886],"name":"R","children":[2]},{"children":[1,3]}],"bufferViews":[{"buffer":0,"byteOffset":0,"byteLength":768,"target":34962,"byteStride":12},{"buffer":0,"byteOffset":768,"byteLength":768,"target":34962,"byteStride":12},{"buffer":0,"byteOffset":1536,"byteLength":512,"target":34962,"byteStride":8},{"buffer":0,"byteOffset":2048,"byteLength":192,"target":34963},{"buffer":0,"byteOffset":2240,"byteLength":768,"target":34962,"byteStride":12},{"buffer":0,"byteOffset":3008,"byteLength":768,"target":34962,"byteStride":12},{"buffer":0,"byteOffset":3776,"byteLength":512,"target":34962,"byteStride":8},{"buffer":0,"byteOffset":4288,"byteLength":192,"target":34963},{"buffer":0,"byteOffset":4480,"byteLength":16},{"buffer":0,"byteOffset":4496,"byteLength":64},{"buffer":0,"byteOffset":4560,"byteLength":32},{"buffer":0,"byteOffset":4592,"byteLength":96},{"buffer":0,"byteOffset":4688,"byteLength":16},{"buffer":0,"byteOffset":4704,"byteLength":64},{"buffer":0,"byteOffset":4768,"byteLength":32},{"buffer":0,"byteOffset":4800,"byteLength":96}],"buffers":[{"byteLength":4896,"uri":"data:application/octet-stream;base64,"}],"accessors":[{"bufferView":0,"componentType":5126,"count":64,"max":[0.46399998664855957,0.6359999775886536,0.7160000205039978],"min":[-1.5119999647140503,0.3959999978542328,-0.5440000295639038],"type":"VEC3"},{"bufferView":1,"componentType":5126,"count":64,"max":[0.2720777988433838,1,0.2387947142124176],"min":[-0.2720777988433838,-1,-0.3560839295387268],"type":"VEC3"},{"bufferView":2,"componentType":5126,"count":64,"max":[0.984375,0.109375],"min":[0.015625,0.078125],"type":"VEC2"},{"bufferView":3,"componentType":5123,"count":96,"max":[63],"min":[0],"type":"SCALAR"},{"bufferView":4,"componentType":5126,"count":64,"max":[1.5119999647140503,0.6359999775886536,0.7160000205039978],"min":[-0.46399998664855957,0.3959999978542328,-0.5440000295639038],"type":"VEC3"},{"bufferView":5,"componentType":5126,"count":64,"max":[0.2720777988433838,1,0.2387947142124176],"min":[-0.2720777988433838,-1,-0.3560839295387268],"type":"VEC3"},{"bufferView":6,"componentType":5126,"count":64,"max":[0.984375,0.046875],"min":[0.015625,0.015625],"type":"VEC2"},{"bufferView":7,"componentType":5123,"count":96,"max":[63],"min":[0],"type":"SCALAR"},{"bufferView":8,"componentType":5126,"count":4,"max":[1.5],"min":[0],"type":"SCALAR"},{"bufferView":9,"componentType":5126,"count":4,"max":[0,0,0,1],"min":[0,0,-0.8660253882408142,-1],"type":"VEC4"},{"bufferView":10,"componentType":5126,"count":8,"max":[5],"min":[0],"type":"SCALAR"},{"bufferView":11,"componentType":5126,"count":8,"max":[2.2771248817443848,0.515999972820282,0.7428749799728394],"min":[0.5239999890327454,0.515999972820282,-0.01600000075995922],"type":"VEC3"},{"bufferView":12,"componentType":5126,"count":4,"max":[1.5],"min":[0],"type":"SCALAR"},{"bufferView":13,"componentType":5126,"count":4,"max":[0,0,0.8660253882408142,1],"min":[0,0,0,-1],"type":"VEC4"},{"bufferView":14,"componentType":5126,"count":8,"max":[5],"min":[0],"type":"SCALAR"},{"bufferView":15,"componentType":5126,"count":8,"max":[-0.5239999890327454,0.515999972820282,-0.01600000075995922],"min":[-2.0692501068115234,0.515999972820282,-0.5842499732971191],"type":"VEC3"}],"materials":[{"pbrMetallicRoughness":{"metallicFactor":0,"roughnessFactor":1,"baseColorTexture":{"index":0}},"alphaMode":"MASK","alphaCutoff":0.05,"doubleSided":true}],"textures":[{"sampler":0,"source":0,"name":"texture"}],"samplers":[{"magFilter":9728,"minFilter":9728,"wrapS":33071,"wrapT":33071}],"images":[{"mimeType":"image/png","uri":"data:image/png;base64,"}],"meshes":[{"primitives":[{"mode":4,"attributes":{"POSITION":0,"NORMAL":1,"TEXCOORD_0":2},"indices":3,"material":0}]},{"primitives":[{"mode":4,"attributes":{"POSITION":4,"NORMAL":5,"TEXCOORD_0":6},"indices":7,"material":0}]}],"animations":[{"name":"Spererate","samplers":[{"input":8,"output":9,"interpolation":"LINEAR"},{"input":10,"output":11,"interpolation":"LINEAR"},{"input":12,"output":13,"interpolation":"LINEAR"},{"input":14,"output":15,"interpolation":"LINEAR"}],"channels":[{"sampler":0,"target":{"node":3,"path":"rotation"}},{"sampler":1,"target":{"node":3,"path":"translation"}},{"sampler":2,"target":{"node":1,"path":"rotation"}},{"sampler":3,"target":{"node":1,"path":"translation"}}]}]}