{"asset":{"version":"2.0","generator":"Blockbench 4.10.0 glTF exporter"},"scenes":[{"nodes":[12],"name":"blockbench_export"}],"scene":0,"nodes":[{"rotation":[0.0790562896850636,-0.2907987388817241,0.1924504860947603,0.9338891834301974],"translation":[-0.40344321045061804,-0.09444553374995684,0.49009241036673196],"name":"Livery","mesh":0},{"rotation":[0.0790562896850636,0.2907987388817241,-0.1924504860947603,0.9338891834301974],"translation":[0.20455678954938208,-0.09444553374995684,0.49009241036673196],"name":"Livery","mesh":1},{"translation":[0.09944321045061796,0.38444553374995694,-0.1940924103667317],"name":"BackLivery","children":[0,1]},{"rotation":[-0.005534972292962066,-0.06776955763055169,0.18352676544187896,0.9806602762969023],"translation":[-0.19888642090123593,0,0],"name":"FrontLivery","mesh":2},{"rotation":[-0.005534972292962066,0.06776955763055169,-0.18352676544187896,0.9806602762969023],"name":"FrontLivery","mesh":3},{"translation":[0.09944321045061796,0.38444553374995694,-0.1940924103667317],"name":"FrontLivery","children":[3,4]},{"rotation":[0.005534972292962066,-0.06776955763055169,-0.18352676544187896,0.9806602762969023],"translation":[0.19888642090123593,0,0],"name":"FrontLivery","mesh":4},{"rotation":[0.005534972292962066,0.06776955763055169,0.18352676544187896,0.9806602762969023],"name":"FrontLivery","mesh":5},{"rotation":[-0.043619387365336,0,0,0.9990482215818578],"translation":[-0.10055678954938208,0.38044553374995693,-0.2980924103667315],"name":"FrontLiveryReversed","children":[6,7]},{"name":"Liveries","children":[2,5,8]},{"name":"Frame","mesh":6},{"name":"Frame","children":[9,10]},{"children":[11]}],"bufferViews":[{"buffer":0,"byteOffset":0,"byteLength":1248,"target":34962,"byteStride":12},{"buffer":0,"byteOffset":1248,"byteLength":1248,"target":34962,"byteStride":12},{"buffer":0,"byteOffset":2496,"byteLength":832,"target":34962,"byteStride":8},{"buffer":0,"byteOffset":3328,"byteLength":312,"target":34963},{"buffer":0,"byteOffset":3640,"byteLength":1248,"target":34962,"byteStride":12},{"buffer":0,"byteOffset":4888,"byteLength":1248,"target":34962,"byteStride":12},{"buffer":0,"byteOffset":6136,"byteLength":832,"target":34962,"byteStride":8},{"buffer":0,"byteOffset":6968,"byteLength":312,"target":34963},{"buffer":0,"byteOffset":7280,"byteLength":1440,"target":34962,"byteStride":12},{"buffer":0,"byteOffset":8720,"byteLength":1440,"target":34962,"byteStride":12},{"buffer":0,"byteOffset":10160,"byteLength":960,"target":34962,"byteStride":8},{"buffer":0,"byteOffset":11120,"byteLength":360,"target":34963},{"buffer":0,"byteOffset":11480,"byteLength":1440,"target":34962,"byteStride":12},{"buffer":0,"byteOffset":12920,"byteLength":1440,"target":34962,"byteStride":12},{"buffer":0,"byteOffset":14360,"byteLength":960,"target":34962,"byteStride":8},{"buffer":0,"byteOffset":15320,"byteLength":360,"target":34963},{"buffer":0,"byteOffset":15680,"byteLength":1440,"target":34962,"byteStride":12},{"buffer":0,"byteOffset":17120,"byteLength":1440,"target":34962,"byteStride":12},{"buffer":0,"byteOffset":18560,"byteLength":960,"target":34962,"byteStride":8},{"buffer":0,"byteOffset":19520,"byteLength":360,"target":34963},{"buffer":0,"byteOffset":19880,"byteLength":1440,"target":34962,"byteStride":12},{"buffer":0,"byteOffset":21320,"byteLength":1440,"target":34962,"byteStride":12},{"buffer":0,"byteOffset":22760,"byteLength":960,"target":34962,"byteStride":8},{"buffer":0,"byteOffset":23720,"byteLength":360,"target":34963},{"buffer":0,"byteOffset":24080,"byteLength":4152,"target":34962,"byteStride":12},{"buffer":0,"byteOffset":28232,"byteLength":4152,"target":34962,"byteStride":12},{"buffer":0,"byteOffset":32384,"byteLength":2768,"target":34962,"byteStride":8},{"buffer":0,"byteOffset":35152,"byteLength":996,"target":34963}],"buffers":[{"byteLength":36148,"uri":"data:application/octet-stream;base64,"}],"accessors":[{"bufferView":0,"componentType":5126,"count":104,"max":[0.00800000037997961,0.006000000052154064,0.296999990940094],"min":[-0.36000001430511475,-0.014000000432133675,-0.4754999876022339],"type":"VEC3"},{"bufferView":1,"componentType":5126,"count":104,"max":[1,1,1],"min":[-1,-1,-1],"type":"VEC3"},{"bufferView":2,"componentType":5126,"count":104,"max":[0.25,0.25],"min":[0,0],"type":"VEC2"},{"bufferView":3,"componentType":5123,"count":156,"max":[103],"min":[0],"type":"SCALAR"},{"bufferView":4,"componentType":5126,"count":104,"max":[0.36000001430511475,0.006000000052154064,0.296999990940094],"min":[-0.00800000037997961,-0.014000000432133675,-0.4754999876022339],"type":"VEC3"},{"bufferView":5,"componentType":5126,"count":104,"max":[1,1,1],"min":[-1,-1,-1],"type":"VEC3"},{"bufferView":6,"componentType":5126,"count":104,"max":[0.25,0.25],"min":[0,0],"type":"VEC2"},{"bufferView":7,"componentType":5123,"count":156,"max":[103],"min":[0],"type":"SCALAR"},{"bufferView":8,"componentType":5126,"count":120,"max":[0.0788198783993721,-0.0020000000949949026,0.15714530646800995],"min":[-0.15903694927692413,-0.02199999988079071,-0.1529683619737625],"type":"VEC3"},{"bufferView":9,"componentType":5126,"count":120,"max":[1,1,1],"min":[-1,-1,-0.9073006510734558],"type":"VEC3"},{"bufferView":10,"componentType":5126,"count":120,"max":[0.25,0.25],"min":[0,0],"type":"VEC2"},{"bufferView":11,"componentType":5123,"count":180,"max":[119],"min":[0],"type":"SCALAR"},{"bufferView":12,"componentType":5126,"count":120,"max":[0.15903694927692413,-0.0020000000949949026,0.15714530646800995],"min":[-0.0788198783993721,-0.02199999988079071,-0.1529683619737625],"type":"VEC3"},{"bufferView":13,"componentType":5126,"count":120,"max":[1,1,1],"min":[-1,-1,-0.9073006510734558],"type":"VEC3"},{"bufferView":14,"componentType":5126,"count":120,"max":[0.25,0.25],"min":[0,0],"type":"VEC2"},{"bufferView":15,"componentType":5123,"count":180,"max":[119],"min":[0],"type":"SCALAR"},{"bufferView":16,"componentType":5126,"count":120,"max":[0.15903694927692413,-0.0020000000949949026,0.1529683619737625],"min":[-0.0788198783993721,-0.02199999988079071,-0.15714530646800995],"type":"VEC3"},{"bufferView":17,"componentType":5126,"count":120,"max":[1,1,0.9073006510734558],"min":[-1,-1,-1],"type":"VEC3"},{"bufferView":18,"componentType":5126,"count":120,"max":[0.25,0.25],"min":[0,0],"type":"VEC2"},{"bufferView":19,"componentType":5123,"count":180,"max":[119],"min":[0],"type":"SCALAR"},{"bufferView":20,"componentType":5126,"count":120,"max":[0.0788198783993721,-0.0020000000949949026,0.1529683619737625],"min":[-0.15903694927692413,-0.02199999988079071,-0.15714530646800995],"type":"VEC3"},{"bufferView":21,"componentType":5126,"count":120,"max":[1,1,0.9073006510734558],"min":[-1,-1,-1],"type":"VEC3"},{"bufferView":22,"componentType":5126,"count":120,"max":[0.25,0.25],"min":[0,0],"type":"VEC2"},{"bufferView":23,"componentType":5123,"count":180,"max":[119],"min":[0],"type":"SCALAR"},{"bufferView":24,"componentType":5126,"count":346,"max":[0.5404178500175476,0.5069320201873779,0.6563276648521423],"min":[-0.5404178500175476,0.12800000607967377,-0.6545000076293945],"type":"VEC3"},{"bufferView":25,"componentType":5126,"count":346,"max":[0.9999517798423767,0.9856399893760681,0.9564982652664185],"min":[-0.9999517798423767,-0.9838880300521851,-0.9564982652664185],"type":"VEC3"},{"bufferView":26,"componentType":5126,"count":346,"max":[0.640625,0.5838195085525513],"min":[0,0],"type":"VEC2"},{"bufferView":27,"componentType":5123,"count":498,"max":[345],"min":[0],"type":"SCALAR"}],"materials":[{"pbrMetallicRoughness":{"metallicFactor":0,"roughnessFactor":1},"alphaMode":"MASK","alphaCutoff":0.05,"doubleSided":true},{"pbrMetallicRoughness":{"metallicFactor":0,"roughnessFactor":1},"alphaMode":"MASK","alphaCutoff":0.05,"doubleSided":true}],"meshes":[{"primitives":[{"mode":4,"attributes":{"POSITION":0,"NORMAL":1,"TEXCOORD_0":2},"indices":3,"material":0}]},{"primitives":[{"mode":4,"attributes":{"POSITION":4,"NORMAL":5,"TEXCOORD_0":6},"indices":7,"material":0}]},{"primitives":[{"mode":4,"attributes":{"POSITION":8,"NORMAL":9,"TEXCOORD_0":10},"indices":11,"material":1}]},{"primitives":[{"mode":4,"attributes":{"POSITION":12,"NORMAL":13,"TEXCOORD_0":14},"indices":15,"material":1}]},{"primitives":[{"mode":4,"attributes":{"POSITION":16,"NORMAL":17,"TEXCOORD_0":18},"indices":19,"material":1}]},{"primitives":[{"mode":4,"attributes":{"POSITION":20,"NORMAL":21,"TEXCOORD_0":22},"indices":23,"material":1}]},{"primitives":[{"mode":4,"attributes":{"POSITION":24,"NORMAL":25,"TEXCOORD_0":26},"indices":27,"material":1}]}]}