{"asset":{"version":"2.0","generator":"Blockbench 4.10.1 glTF exporter"},"scenes":[{"nodes":[27],"name":"blockbench_export"}],"scene":0,"nodes":[{"name":"Stabilizer output","mesh":0},{"rotation":[0,0,-0.13052619222005157,0.9914448613738104],"translation":[-0.20220600001651948,0.15719091435995708,-0.20399999999999993],"name":"LOutput","children":[0]},{"rotation":[0,0,-0.13052619222005157,0.9914448613738104],"name":"Lwing","mesh":1},{"rotation":[0,0,-0.13052619222005157,0.9914448613738104],"name":"MainStablizer","mesh":2},{"translation":[6.372151859198896e-19,-0.12282500000000002,0.20275769303070992],"name":"LUpWing","children":[1,2,3]},{"name":"Stabilizer output","mesh":3},{"rotation":[0,0,0.13052619222005157,0.9914448613738104],"translation":[0.20220600001651948,0.15719091435995708,-0.20399999999999993],"name":"ROutput2","children":[5]},{"rotation":[0,0,0.13052619222005157,0.9914448613738104],"name":"Rwing","mesh":4},{"rotation":[0,0,0.13052619222005157,0.9914448613738104],"name":"MainStablizer","mesh":5},{"translation":[6.372151859198896e-19,-0.12282500000000002,0.20275769303070992],"name":"RUpWing","children":[6,7,8]},{"name":"Lengine Block","mesh":6},{"name":"Rengine Block","mesh":7},{"translation":[6.372151859198896e-19,-0.12282500000000002,0.20275769303070992],"name":"Engines","children":[10,11]},{"translation":[0.23999999999999969,0.12799999999999984,-0.3159999999999999],"name":"Stabilizer output","mesh":8},{"rotation":[0,0,0.13052619222005157,0.9914448613738104],"translation":[-0.400899360552773,-0.17656416222964846,0.11199999999999996],"name":"LLoweroutput","children":[13]},{"rotation":[0,0,0.13052619222005157,0.9914448613738104],"name":"LLowerWing","mesh":9},{"rotation":[0,0,0.13052619222005157,0.9914448613738104],"translation":[0,-0.14800000000000008,0],"name":"MainStablizer","mesh":10},{"translation":[6.372151859198896e-19,0.02517500000000006,0.20275769303070992],"name":"LLowerWing","children":[14,15,16]},{"translation":[-0.23999999999999969,0.12799999999999984,-0.3159999999999999],"name":"Stabilizer output","mesh":11},{"rotation":[0,0,-0.13052619222005157,0.9914448613738104],"translation":[0.400899360552773,-0.17656416222964846,0.11199999999999996],"name":"RLoweroutput2","children":[18]},{"rotation":[0,0,-0.13052619222005157,0.9914448613738104],"translation":[0,-0.14800000000000008,0],"name":"MainStablizer","mesh":12},{"rotation":[0,0,-0.13052619222005157,0.9914448613738104],"name":"RLowerWing","mesh":13},{"translation":[6.372151859198896e-19,0.02517500000000006,0.20275769303070992],"name":"RLowerWing","children":[19,20,21]},{"translation":[6.372151859198896e-19,-0.12282500000000002,0.20275769303070992],"name":"Fuselage","mesh":14},{"translation":[6.372151859198896e-19,-0.12282500000000002,0.20275769303070992],"name":"Fuselage upper","mesh":15},{"translation":[6.372151859198896e-19,-0.12282500000000002,0.20275769303070992],"name":"cockpit","mesh":16},{"translation":[-6.372151859198896e-19,0.12282500000000002,-0.20275769303070992],"name":"Fuselage","children":[4,9,12,17,22,23,24,25]},{"children":[26]}],"bufferViews":[{"buffer":0,"byteOffset":0,"byteLength":4608,"target":34962,"byteStride":12},{"buffer":0,"byteOffset":4608,"byteLength":4608,"target":34962,"byteStride":12},{"buffer":0,"byteOffset":9216,"byteLength":3072,"target":34962,"byteStride":8},{"buffer":0,"byteOffset":12288,"byteLength":1152,"target":34963},{"buffer":0,"byteOffset":13440,"byteLength":1056,"target":34962,"byteStride":12},{"buffer":0,"byteOffset":14496,"byteLength":1056,"target":34962,"byteStride":12},{"buffer":0,"byteOffset":15552,"byteLength":704,"target":34962,"byteStride":8},{"buffer":0,"byteOffset":16256,"byteLength":264,"target":34963},{"buffer":0,"byteOffset":16520,"byteLength":4608,"target":34962,"byteStride":12},{"buffer":0,"byteOffset":21128,"byteLength":4608,"target":34962,"byteStride":12},{"buffer":0,"byteOffset":25736,"byteLength":3072,"target":34962,"byteStride":8},{"buffer":0,"byteOffset":28808,"byteLength":1152,"target":34963},{"buffer":0,"byteOffset":29960,"byteLength":4608,"target":34962,"byteStride":12},{"buffer":0,"byteOffset":34568,"byteLength":4608,"target":34962,"byteStride":12},{"buffer":0,"byteOffset":39176,"byteLength":3072,"target":34962,"byteStride":8},{"buffer":0,"byteOffset":42248,"byteLength":1152,"target":34963},{"buffer":0,"byteOffset":43400,"byteLength":1056,"target":34962,"byteStride":12},{"buffer":0,"byteOffset":44456,"byteLength":1056,"target":34962,"byteStride":12},{"buffer":0,"byteOffset":45512,"byteLength":704,"target":34962,"byteStride":8},{"buffer":0,"byteOffset":46216,"byteLength":264,"target":34963},{"buffer":0,"byteOffset":46480,"byteLength":4608,"target":34962,"byteStride":12},{"buffer":0,"byteOffset":51088,"byteLength":4608,"target":34962,"byteStride":12},{"buffer":0,"byteOffset":55696,"byteLength":3072,"target":34962,"byteStride":8},{"buffer":0,"byteOffset":58768,"byteLength":1152,"target":34963},{"buffer":0,"byteOffset":59920,"byteLength":2016,"target":34962,"byteStride":12},{"buffer":0,"byteOffset":61936,"byteLength":2016,"target":34962,"byteStride":12},{"buffer":0,"byteOffset":63952,"byteLength":1344,"target":34962,"byteStride":8},{"buffer":0,"byteOffset":65296,"byteLength":504,"target":34963},{"buffer":0,"byteOffset":65800,"byteLength":2016,"target":34962,"byteStride":12},{"buffer":0,"byteOffset":67816,"byteLength":2016,"target":34962,"byteStride":12},{"buffer":0,"byteOffset":69832,"byteLength":1344,"target":34962,"byteStride":8},{"buffer":0,"byteOffset":71176,"byteLength":504,"target":34963},{"buffer":0,"byteOffset":71680,"byteLength":4608,"target":34962,"byteStride":12},{"buffer":0,"byteOffset":76288,"byteLength":4608,"target":34962,"byteStride":12},{"buffer":0,"byteOffset":80896,"byteLength":3072,"target":34962,"byteStride":8},{"buffer":0,"byteOffset":83968,"byteLength":1152,"target":34963},{"buffer":0,"byteOffset":85120,"byteLength":2088,"target":34962,"byteStride":12},{"buffer":0,"byteOffset":87208,"byteLength":2088,"target":34962,"byteStride":12},{"buffer":0,"byteOffset":89296,"byteLength":1392,"target":34962,"byteStride":8},{"buffer":0,"byteOffset":90688,"byteLength":516,"target":34963},{"buffer":0,"byteOffset":91204,"byteLength":4608,"target":34962,"byteStride":12},{"buffer":0,"byteOffset":95812,"byteLength":4608,"target":34962,"byteStride":12},{"buffer":0,"byteOffset":100420,"byteLength":3072,"target":34962,"byteStride":8},{"buffer":0,"byteOffset":103492,"byteLength":1152,"target":34963},{"buffer":0,"byteOffset":104644,"byteLength":4608,"target":34962,"byteStride":12},{"buffer":0,"byteOffset":109252,"byteLength":4608,"target":34962,"byteStride":12},{"buffer":0,"byteOffset":113860,"byteLength":3072,"target":34962,"byteStride":8},{"buffer":0,"byteOffset":116932,"byteLength":1152,"target":34963},{"buffer":0,"byteOffset":118084,"byteLength":4608,"target":34962,"byteStride":12},{"buffer":0,"byteOffset":122692,"byteLength":4608,"target":34962,"byteStride":12},{"buffer":0,"byteOffset":127300,"byteLength":3072,"target":34962,"byteStride":8},{"buffer":0,"byteOffset":130372,"byteLength":1152,"target":34963},{"buffer":0,"byteOffset":131524,"byteLength":2088,"target":34962,"byteStride":12},{"buffer":0,"byteOffset":133612,"byteLength":2088,"target":34962,"byteStride":12},{"buffer":0,"byteOffset":135700,"byteLength":1392,"target":34962,"byteStride":8},{"buffer":0,"byteOffset":137092,"byteLength":516,"target":34963},{"buffer":0,"byteOffset":137608,"byteLength":4128,"target":34962,"byteStride":12},{"buffer":0,"byteOffset":141736,"byteLength":4128,"target":34962,"byteStride":12},{"buffer":0,"byteOffset":145864,"byteLength":2752,"target":34962,"byteStride":8},{"buffer":0,"byteOffset":148616,"byteLength":1032,"target":34963},{"buffer":0,"byteOffset":149648,"byteLength":1056,"target":34962,"byteStride":12},{"buffer":0,"byteOffset":150704,"byteLength":1056,"target":34962,"byteStride":12},{"buffer":0,"byteOffset":151760,"byteLength":704,"target":34962,"byteStride":8},{"buffer":0,"byteOffset":152464,"byteLength":264,"target":34963},{"buffer":0,"byteOffset":152728,"byteLength":672,"target":34962,"byteStride":12},{"buffer":0,"byteOffset":153400,"byteLength":672,"target":34962,"byteStride":12},{"buffer":0,"byteOffset":154072,"byteLength":448,"target":34962,"byteStride":8},{"buffer":0,"byteOffset":154520,"byteLength":168,"target":34963},{"buffer":0,"byteOffset":154688,"byteLength":16},{"buffer":0,"byteOffset":154704,"byteLength":64},{"buffer":0,"byteOffset":154768,"byteLength":16},{"buffer":0,"byteOffset":154784,"byteLength":64},{"buffer":0,"byteOffset":154848,"byteLength":16},{"buffer":0,"byteOffset":154864,"byteLength":64},{"buffer":0,"byteOffset":154928,"byteLength":28},{"buffer":0,"byteOffset":154956,"byteLength":112}],"buffers":[{"byteLength":155068,"uri":"data:application/octet-stream;base64,"}],"accessors":[{"bufferView":0,"componentType":5126,"count":384,"max":[0.03375000134110451,0.009234451688826084,0.03375000134110451],"min":[-0.03375000134110451,-0.011852380819618702,-0.03375000134110451],"type":"VEC3"},{"bufferView":1,"componentType":5126,"count":384,"max":[0.9977721571922302,0.998848557472229,0.9977721571922302],"min":[-0.9977721571922302,-0.9102784395217896,-0.9977721571922302],"type":"VEC3"},{"bufferView":2,"componentType":5126,"count":384,"max":[0.03551948070526123,0.017423922196030617],"min":[0,0],"type":"VEC2"},{"bufferView":3,"componentType":5123,"count":576,"max":[383],"min":[0],"type":"SCALAR"},{"bufferView":4,"componentType":5126,"count":88,"max":[-0.09200000017881393,0.11188942193984985,0.11512977629899979],"min":[-0.8216633200645447,0.07599999755620956,-0.3199999928474426],"type":"VEC3"},{"bufferView":5,"componentType":5126,"count":88,"max":[0.9955196380615234,1,0.6762759685516357],"min":[-0.8319571018218994,-1,-0.8540543913841248],"type":"VEC3"},{"bufferView":6,"componentType":5126,"count":88,"max":[0.70703125,0.6934367418289185],"min":[0,0],"type":"VEC2"},{"bufferView":7,"componentType":5123,"count":132,"max":[87],"min":[0],"type":"SCALAR"},{"bufferView":8,"componentType":5126,"count":384,"max":[-0.17024999856948853,0.10873445123434067,-0.13824999332427979],"min":[-0.3017500042915344,0.08764761686325073,-0.2697499990463257],"type":"VEC3"},{"bufferView":9,"componentType":5126,"count":384,"max":[0.9916228652000427,0.9996962547302246,0.9916228652000427],"min":[-0.9916228652000427,-0.9738153219223022,-0.9916228652000427],"type":"VEC3"},{"bufferView":10,"componentType":5126,"count":384,"max":[0.03551948070526123,0.017423922196030617],"min":[0,0],"type":"VEC2"},{"bufferView":11,"componentType":5123,"count":576,"max":[383],"min":[0],"type":"SCALAR"},{"bufferView":12,"componentType":5126,"count":384,"max":[0.03375000134110451,0.009234451688826084,0.03375000134110451],"min":[-0.03375000134110451,-0.011852380819618702,-0.03375000134110451],"type":"VEC3"},{"bufferView":13,"componentType":5126,"count":384,"max":[0.9977721571922302,0.998848557472229,0.9977721571922302],"min":[-0.9977721571922302,-0.9102784395217896,-0.9977721571922302],"type":"VEC3"},{"bufferView":14,"componentType":5126,"count":384,"max":[0.03551948070526123,0.017423922196030617],"min":[0,0],"type":"VEC2"},{"bufferView":15,"componentType":5123,"count":576,"max":[383],"min":[0],"type":"SCALAR"},{"bufferView":16,"componentType":5126,"count":88,"max":[0.8216633200645447,0.11188942193984985,0.11512977629899979],"min":[0.09200000017881393,0.07599999755620956,-0.3199999928474426],"type":"VEC3"},{"bufferView":17,"componentType":5126,"count":88,"max":[0.8319571018218994,1,0.6762759685516357],"min":[-0.9955196380615234,-1,-0.8540543913841248],"type":"VEC3"},{"bufferView":18,"componentType":5126,"count":88,"max":[0.70703125,0.6507538557052612],"min":[0,0],"type":"VEC2"},{"bufferView":19,"componentType":5123,"count":132,"max":[87],"min":[0],"type":"SCALAR"},{"bufferView":20,"componentType":5126,"count":384,"max":[0.3017500042915344,0.10873445123434067,-0.13824999332427979],"min":[0.17024999856948853,0.08764761686325073,-0.2697499990463257],"type":"VEC3"},{"bufferView":21,"componentType":5126,"count":384,"max":[0.9916228652000427,0.9996962547302246,0.9916228652000427],"min":[-0.9916228652000427,-0.9738153219223022,-0.9916228652000427],"type":"VEC3"},{"bufferView":22,"componentType":5126,"count":384,"max":[0.03551948070526123,0.017423922196030617],"min":[0,0],"type":"VEC2"},{"bufferView":23,"componentType":5123,"count":576,"max":[383],"min":[0],"type":"SCALAR"},{"bufferView":24,"componentType":5126,"count":168,"max":[-0.0568145252764225,0.10899999737739563,0.21299999952316284],"min":[-0.15049999952316284,0.0560000017285347,-0.26249998807907104],"type":"VEC3"},{"bufferView":25,"componentType":5126,"count":168,"max":[0.9774039387702942,1,0.9539494514465332],"min":[-0.9997677803039551,-1,-0.7563631534576416],"type":"VEC3"},{"bufferView":26,"componentType":5126,"count":168,"max":[0.08837890625,0.08837890625],"min":[0,0],"type":"VEC2"},{"bufferView":27,"componentType":5123,"count":252,"max":[167],"min":[0],"type":"SCALAR"},{"bufferView":28,"componentType":5126,"count":168,"max":[0.15049999952316284,0.10899999737739563,0.21299999952316284],"min":[0.0568145252764225,0.0560000017285347,-0.26249998807907104],"type":"VEC3"},{"bufferView":29,"componentType":5126,"count":168,"max":[0.9997677803039551,1,0.9539494514465332],"min":[-0.9774039387702942,-1,-0.7563631534576416],"type":"VEC3"},{"bufferView":30,"componentType":5126,"count":168,"max":[0.08837890625,0.08837890625],"min":[0,0],"type":"VEC2"},{"bufferView":31,"componentType":5123,"count":252,"max":[167],"min":[0],"type":"SCALAR"},{"bufferView":32,"componentType":5126,"count":384,"max":[-0.20624999701976776,-0.11876554787158966,0.34975001215934753],"min":[-0.2737500071525574,-0.139852374792099,0.28224998712539673],"type":"VEC3"},{"bufferView":33,"componentType":5126,"count":384,"max":[0.9977721571922302,0.998848557472229,0.9977721571922302],"min":[-0.9977721571922302,-0.9102784395217896,-0.9977721571922302],"type":"VEC3"},{"bufferView":34,"componentType":5126,"count":384,"max":[0.03551948070526123,0.017423922196030617],"min":[0,0],"type":"VEC2"},{"bufferView":35,"componentType":5123,"count":576,"max":[383],"min":[0],"type":"SCALAR"},{"bufferView":36,"componentType":5126,"count":174,"max":[-0.003859827294945717,-0.06700000166893005,0.2345000058412552],"min":[-0.7450000047683716,-0.09200000017881393,-0.23633597791194916],"type":"VEC3"},{"bufferView":37,"componentType":5126,"count":174,"max":[0.5909243822097778,1,0.8104578852653503],"min":[-0.6348041892051697,-1,-0.8871488571166992],"type":"VEC3"},{"bufferView":38,"componentType":5126,"count":174,"max":[0.23741450905799866,0.23800618946552277],"min":[0,0],"type":"VEC2"},{"bufferView":39,"componentType":5123,"count":258,"max":[173],"min":[0],"type":"SCALAR"},{"bufferView":40,"componentType":5126,"count":384,"max":[-0.33024999499320984,0.08473445475101471,0.17775000631809235],"min":[-0.46175000071525574,0.06364762037992477,0.04625000059604645],"type":"VEC3"},{"bufferView":41,"componentType":5126,"count":384,"max":[0.9916228652000427,0.9996962547302246,0.9916228652000427],"min":[-0.9916228652000427,-0.9738153219223022,-0.9916228652000427],"type":"VEC3"},{"bufferView":42,"componentType":5126,"count":384,"max":[0.03551948070526123,0.017423922196030617],"min":[0,0],"type":"VEC2"},{"bufferView":43,"componentType":5123,"count":576,"max":[383],"min":[0],"type":"SCALAR"},{"bufferView":44,"componentType":5126,"count":384,"max":[0.2737500071525574,-0.11876554787158966,0.34975001215934753],"min":[0.20624999701976776,-0.139852374792099,0.28224998712539673],"type":"VEC3"},{"bufferView":45,"componentType":5126,"count":384,"max":[0.9977721571922302,0.998848557472229,0.9977721571922302],"min":[-0.9977721571922302,-0.9102784395217896,-0.9977721571922302],"type":"VEC3"},{"bufferView":46,"componentType":5126,"count":384,"max":[0.03551948070526123,0.017423922196030617],"min":[0,0],"type":"VEC2"},{"bufferView":47,"componentType":5123,"count":576,"max":[383],"min":[0],"type":"SCALAR"},{"bufferView":48,"componentType":5126,"count":384,"max":[0.46175000071525574,0.08473445475101471,0.17775000631809235],"min":[0.33024999499320984,0.06364762037992477,0.04625000059604645],"type":"VEC3"},{"bufferView":49,"componentType":5126,"count":384,"max":[0.9916228652000427,0.9996962547302246,0.9916228652000427],"min":[-0.9916228652000427,-0.9738153219223022,-0.9916228652000427],"type":"VEC3"},{"bufferView":50,"componentType":5126,"count":384,"max":[0.03551948070526123,0.017423922196030617],"min":[0,0],"type":"VEC2"},{"bufferView":51,"componentType":5123,"count":576,"max":[383],"min":[0],"type":"SCALAR"},{"bufferView":52,"componentType":5126,"count":174,"max":[0.7450000047683716,-0.06700000166893005,0.2345000058412552],"min":[0.003859827294945717,-0.09200000017881393,-0.23633597791194916],"type":"VEC3"},{"bufferView":53,"componentType":5126,"count":174,"max":[0.6348041892051697,1,0.8104578852653503],"min":[-0.5909243822097778,-1,-0.8871488571166992],"type":"VEC3"},{"bufferView":54,"componentType":5126,"count":174,"max":[0.23741450905799866,0.23800618946552277],"min":[0,0],"type":"VEC2"},{"bufferView":55,"componentType":5123,"count":258,"max":[173],"min":[0],"type":"SCALAR"},{"bufferView":56,"componentType":5126,"count":344,"max":[0.10249999910593033,0.12449999898672104,0.3160000145435333],"min":[-0.10249999910593033,0.052000001072883606,-0.4410000145435333],"type":"VEC3"},{"bufferView":57,"componentType":5126,"count":344,"max":[1,1,1],"min":[-1,-1,-1],"type":"VEC3"},{"bufferView":58,"componentType":5126,"count":344,"max":[0.70703125,0.70703125],"min":[0,0],"type":"VEC2"},{"bufferView":59,"componentType":5123,"count":516,"max":[343],"min":[0],"type":"SCALAR"},{"bufferView":60,"componentType":5126,"count":88,"max":[0.05849999934434891,0.13699999451637268,0.017999999225139618],"min":[-0.05849999934434891,0.12399999797344208,-0.390500009059906],"type":"VEC3"},{"bufferView":61,"componentType":5126,"count":88,"max":[0.8716860413551331,1,0.5273292660713196],"min":[-0.8716860413551331,-1,-0.5449883341789246],"type":"VEC3"},{"bufferView":62,"componentType":5126,"count":88,"max":[0.5791071653366089,0.4197998046875],"min":[0.00006628417759202421,0],"type":"VEC2"},{"bufferView":63,"componentType":5123,"count":132,"max":[87],"min":[0],"type":"SCALAR"},{"bufferView":64,"componentType":5126,"count":56,"max":[0.03849999979138374,0.164000004529953,-0.19099999964237213],"min":[-0.03849999979138374,0.13600000739097595,-0.36649999022483826],"type":"VEC3"},{"bufferView":65,"componentType":5126,"count":56,"max":[0.7906002998352051,0.9989283680915833,0.6476483941078186],"min":[-0.7906002998352051,-1,-0.5780173540115356],"type":"VEC3"},{"bufferView":66,"componentType":5126,"count":56,"max":[0.13633166253566742,0.08837890625],"min":[0,0],"type":"VEC2"},{"bufferView":67,"componentType":5123,"count":84,"max":[55],"min":[0],"type":"SCALAR"},{"bufferView":68,"componentType":5126,"count":4,"max":[1],"min":[0],"type":"SCALAR"},{"bufferView":69,"componentType":5126,"count":4,"max":[0.1304951310157776,0.9912089109420776,0.1304951310157776,0.9914448857307434],"min":[0,0,-0.13052618503570557,-0.9912089109420776],"type":"VEC4"},{"bufferView":70,"componentType":5126,"count":4,"max":[1],"min":[0],"type":"SCALAR"},{"bufferView":71,"componentType":5126,"count":4,"max":[0,0.9912089109420776,0.13052618503570557,0.9914448857307434],"min":[-0.1304951310157776,0,-0.1304951310157776,-0.9912089109420776],"type":"VEC4"},{"bufferView":72,"componentType":5126,"count":4,"max":[1],"min":[0],"type":"SCALAR"},{"bufferView":73,"componentType":5126,"count":4,"max":[0.1304951310157776,0.9912089109420776,0.1304951310157776,0.9914448857307434],"min":[0,0,-0.13052618503570557,-0.9912089109420776],"type":"VEC4"},{"bufferView":74,"componentType":5126,"count":7,"max":[2.25],"min":[0],"type":"SCALAR"},{"bufferView":75,"componentType":5126,"count":7,"max":[0,0,0.8586618304252625,1],"min":[0,0,-0.04361938685178757,-1],"type":"VEC4"}],"materials":[{"pbrMetallicRoughness":{"metallicFactor":0,"roughnessFactor":1,"baseColorTexture":{"index":0}},"alphaMode":"MASK","alphaCutoff":0.05,"doubleSided":true}],"textures":[{"sampler":0,"source":0,"name":"Metal tex.png"}],"samplers":[{"magFilter":9728,"minFilter":9728,"wrapS":33071,"wrapT":33071}],"images":[{"mimeType":"image/png","uri":"data:image/png;base64,"}],"meshes":[{"primitives":[{"mode":4,"attributes":{"POSITION":0,"NORMAL":1,"TEXCOORD_0":2},"indices":3,"material":0}]},{"primitives":[{"mode":4,"attributes":{"POSITION":4,"NORMAL":5,"TEXCOORD_0":6},"indices":7,"material":0}]},{"primitives":[{"mode":4,"attributes":{"POSITION":8,"NORMAL":9,"TEXCOORD_0":10},"indices":11,"material":0}]},{"primitives":[{"mode":4,"attributes":{"POSITION":12,"NORMAL":13,"TEXCOORD_0":14},"indices":15,"material":0}]},{"primitives":[{"mode":4,"attributes":{"POSITION":16,"NORMAL":17,"TEXCOORD_0":18},"indices":19,"material":0}]},{"primitives":[{"mode":4,"attributes":{"POSITION":20,"NORMAL":21,"TEXCOORD_0":22},"indices":23,"material":0}]},{"primitives":[{"mode":4,"attributes":{"POSITION":24,"NORMAL":25,"TEXCOORD_0":26},"indices":27,"material":0}]},{"primitives":[{"mode":4,"attributes":{"POSITION":28,"NORMAL":29,"TEXCOORD_0":30},"indices":31,"material":0}]},{"primitives":[{"mode":4,"attributes":{"POSITION":32,"NORMAL":33,"TEXCOORD_0":34},"indices":35,"material":0}]},{"primitives":[{"mode":4,"attributes":{"POSITION":36,"NORMAL":37,"TEXCOORD_0":38},"indices":39,"material":0}]},{"primitives":[{"mode":4,"attributes":{"POSITION":40,"NORMAL":41,"TEXCOORD_0":42},"indices":43,"material":0}]},{"primitives":[{"mode":4,"attributes":{"POSITION":44,"NORMAL":45,"TEXCOORD_0":46},"indices":47,"material":0}]},{"primitives":[{"mode":4,"attributes":{"POSITION":48,"NORMAL":49,"TEXCOORD_0":50},"indices":51,"material":0}]},{"primitives":[{"mode":4,"attributes":{"POSITION":52,"NORMAL":53,"TEXCOORD_0":54},"indices":55,"material":0}]},{"primitives":[{"mode":4,"attributes":{"POSITION":56,"NORMAL":57,"TEXCOORD_0":58},"indices":59,"material":0}]},{"primitives":[{"mode":4,"attributes":{"POSITION":60,"NORMAL":61,"TEXCOORD_0":62},"indices":63,"material":0}]},{"primitives":[{"mode":4,"attributes":{"POSITION":64,"NORMAL":65,"TEXCOORD_0":66},"indices":67,"material":0}]}],"animations":[{"name":"Idle","samplers":[{"input":68,"output":69,"interpolation":"LINEAR"},{"input":70,"output":71,"interpolation":"LINEAR"},{"input":72,"output":73,"interpolation":"LINEAR"}],"channels":[{"sampler":0,"target":{"node":1,"path":"rotation"}},{"sampler":1,"target":{"node":14,"path":"rotation"}},{"sampler":2,"target":{"node":19,"path":"rotation"}}]},{"name":"Spin","samplers":[{"input":74,"output":75,"interpolation":"LINEAR"}],"channels":[{"sampler":0,"target":{"node":26,"path":"rotation"}}]}]}